<?xml version="1.0" encoding="UTF-8"?><svg xmlns="http://www.w3.org/2000/svg" xmlns:xlink="http://www.w3.org/1999/xlink" viewBox="0 0 24 24" version="1.1"><path d="M12 2C6.52 2 2 6.234 2 11.5c0 2.625 1.2 4.945 3 6.656v4.469l4.188-2.094c.898.254 1.82.469 2.812.469 5.48 0 10-4.234 10-9.5S17.48 2 12 2zm0 2c4.46 0 8 3.379 8 7.5S16.46 19 12 19c-.941 0-1.84-.152-2.688-.438l-.406-.125-.375.188-1.531.75v-2l-.344-.313C5.023 15.68 4 13.707 4 11.5 4 7.379 7.54 4 12 4zm-.938 5.031L6.157 14.22l4.407-2.469 2.374 2.531 4.844-5.25-4.312 2.406z" id="surface1"/><metadata><rdf:RDF xmlns:rdf="http://www.w3.org/1999/02/22-rdf-syntax-ns#" xmlns:rdfs="http://www.w3.org/2000/01/rdf-schema#" xmlns:dc="http://purl.org/dc/elements/1.1/"><rdf:Description about="https://iconscout.com/legal#licenses" dc:title="facebook,messenger" dc:description="facebook,messenger" dc:publisher="Iconscout" dc:date="2018-06-22" dc:format="image/svg+xml" dc:language="en"><dc:creator><rdf:Bag><rdf:li>Icons8</rdf:li></rdf:Bag></dc:creator></rdf:Description></rdf:RDF></metadata></svg>